<?xml version="1.0" encoding="UTF-8"?>
<!DOCTYPE svg PUBLIC "-//W3C//DTD SVG 1.0//EN" "http://www.w3.org/TR/2001/REC-SVG-20010904/DTD/svg10.dtd">
<!-- Creator: CorelDRAW 2021 (64 Bit) -->
<svg xmlns="http://www.w3.org/2000/svg" xml:space="preserve" width="6.555mm" height="6.555mm" version="1.0" style="shape-rendering:geometricPrecision; text-rendering:geometricPrecision; image-rendering:optimizeQuality; fill-rule:evenodd; clip-rule:evenodd"
viewBox="0 0 38.74 38.74"
 xmlns:xlink="http://www.w3.org/1999/xlink"
 xmlns:xodm="http://www.corel.com/coreldraw/odm/2003">
 <defs>
  <style type="text/css">
   <![CDATA[
    .fil0 {fill:none}
    .fil1 {fill:white;fill-rule:nonzero}
   ]]>
  </style>
 </defs>
 <g id="Camada_x0020_1">
  <metadata id="CorelCorpID_0Corel-Layer"/>
  <g id="_2292009939488">
   <rect class="fil0" width="38.74" height="38.74"/>
   <path class="fil1" d="M19.37 15.15l-4.79 -4.79c-1.17,-1.17 -3.06,-1.17 -4.22,-0.01 -1.17,1.17 -1.16,3.06 0.01,4.22l4.79 4.79 -4.79 4.79c-1.17,1.17 -1.17,3.06 -0.01,4.22 1.17,1.17 3.06,1.16 4.22,-0.01l4.79 -4.79 4.79 4.79c1.17,1.17 3.06,1.17 4.22,0.01 1.17,-1.17 1.16,-3.06 -0.01,-4.22l-4.79 -4.79 4.79 -4.79c1.17,-1.17 1.17,-3.06 0.01,-4.22 -1.17,-1.17 -3.06,-1.16 -4.22,0.01l-4.79 4.79z"/>
  </g>
 </g>
</svg>
