<?xml version="1.0" encoding="UTF-8"?>
<!DOCTYPE svg PUBLIC "-//W3C//DTD SVG 1.0//EN" "http://www.w3.org/TR/2001/REC-SVG-20010904/DTD/svg10.dtd">
<!-- Creator: CorelDRAW 2021 (64 Bit) -->
<svg xmlns="http://www.w3.org/2000/svg" xml:space="preserve" width="6.555mm" height="6.555mm" version="1.0" style="shape-rendering:geometricPrecision; text-rendering:geometricPrecision; image-rendering:optimizeQuality; fill-rule:evenodd; clip-rule:evenodd"
viewBox="0 0 107.12 107.12"
 xmlns:xlink="http://www.w3.org/1999/xlink"
 xmlns:xodm="http://www.corel.com/coreldraw/odm/2003">
 <defs>
  <style type="text/css">
   <![CDATA[
    .fil0 {fill:none}
    .fil1 {fill:white;fill-rule:nonzero}
   ]]>
  </style>
 </defs>
 <g id="Camada_x0020_1">
  <metadata id="CorelCorpID_0Corel-Layer"/>
  <rect class="fil0" width="107.12" height="107.12"/>
  <g id="_2651592387952">
   <g>
    <path class="fil1" d="M42.28 80.55c0,4.57 -3.69,8.27 -8.25,8.27 -4.56,0 -8.25,-3.7 -8.25,-8.27l16.51 0zm0 -53.97l0 53.97 -16.51 0 0 -53.97 16.51 0zm-16.51 0c0,-4.57 3.69,-8.27 8.25,-8.27 4.56,0 8.25,3.7 8.25,8.27l-16.51 0z"/>
   </g>
   <g>
    <path class="fil1" d="M81.34 80.55c0,4.57 -3.69,8.27 -8.25,8.27 -4.56,0 -8.25,-3.7 -8.25,-8.27l16.51 0zm0 -53.97l0 53.97 -16.51 0 0 -53.97 16.51 0zm-16.51 0c0,-4.57 3.69,-8.27 8.25,-8.27 4.56,0 8.25,3.7 8.25,8.27l-16.51 0z"/>
   </g>
  </g>
 </g>
</svg>
