<?xml version="1.0" encoding="UTF-8"?>
<!DOCTYPE svg PUBLIC "-//W3C//DTD SVG 1.0//EN" "http://www.w3.org/TR/2001/REC-SVG-20010904/DTD/svg10.dtd">
<!-- Creator: CorelDRAW 2021 (64 Bit) -->
<svg xmlns="http://www.w3.org/2000/svg" xml:space="preserve" width="6.555mm" height="6.555mm" version="1.0" style="shape-rendering:geometricPrecision; text-rendering:geometricPrecision; image-rendering:optimizeQuality; fill-rule:evenodd; clip-rule:evenodd"
viewBox="0 0 2053.53 2053.53"
 xmlns:xlink="http://www.w3.org/1999/xlink"
 xmlns:xodm="http://www.corel.com/coreldraw/odm/2003">
 <defs>
  <style type="text/css">
   <![CDATA[
    .fil0 {fill:none}
    .fil1 {fill:#FEFEFE;fill-rule:nonzero}
   ]]>
  </style>
 </defs>
 <g id="Camada_x0020_1">
  <metadata id="CorelCorpID_0Corel-Layer"/>
  <g id="_2292009939488">
   <rect class="fil0" width="2053.53" height="2053.53"/>
  </g>
  <path class="fil1" d="M916.24 1358.37l-232.04 232.04c-61.09,61.09 -160.21,61.09 -221.3,0 -61.09,-61.09 -61.09,-160.21 0,-221.3l232.04 -232.04 -110.34 -110.34c-61.09,-61.09 -61.09,-160.21 0,-221.3 20.39,-20.39 45.05,-33.96 71.08,-40.76l254.79 -91.95 213.87 -210.62c61.12,-60.12 159.24,-59.62 219.76,0.91l0.31 -0.31 246.2 246.24c61.09,61.09 61.09,160.21 0,221.3l-7.61 7.11 -202.38 205.51 -96.65 267.82c-29.01,81.01 -118.26,123.15 -199.28,94.14 -22.43,-8.02 -41.85,-20.68 -57.64,-36.5l-0.44 0.44 -110.4 -110.4z"/>
 </g>
</svg>
