<?xml version="1.0" encoding="UTF-8"?>
<!DOCTYPE svg PUBLIC "-//W3C//DTD SVG 1.0//EN" "http://www.w3.org/TR/2001/REC-SVG-20010904/DTD/svg10.dtd">
<!-- Creator: CorelDRAW 2021 (64 Bit) -->
<svg xmlns="http://www.w3.org/2000/svg" xml:space="preserve" width="6.555mm" height="6.555mm" version="1.0" style="shape-rendering:geometricPrecision; text-rendering:geometricPrecision; image-rendering:optimizeQuality; fill-rule:evenodd; clip-rule:evenodd"
viewBox="0 0 107.12 107.12"
 xmlns:xlink="http://www.w3.org/1999/xlink"
 xmlns:xodm="http://www.corel.com/coreldraw/odm/2003">
 <defs>
  <style type="text/css">
   <![CDATA[
    .fil0 {fill:none}
    .fil1 {fill:white;fill-rule:nonzero}
   ]]>
  </style>
 </defs>
 <g id="Camada_x0020_1">
  <metadata id="CorelCorpID_0Corel-Layer"/>
  <rect class="fil0" width="107.12" height="107.12"/>
  <g>
   <path class="fil1" d="M85.21 60.37l-39.06 26.99 -9.37 -13.61 39.06 -26.99 9.37 0 0 13.61zm-9.37 -13.61c3.75,-2.59 8.89,-1.65 11.48,2.11 2.59,3.76 1.64,8.91 -2.11,11.5l-9.37 -13.61zm-29.69 -26.99l39.06 26.99 -9.37 13.61 -39.06 -26.99 -3.57 -6.8 12.94 -6.8zm-9.37 13.61c-3.75,-2.59 -4.69,-7.74 -2.11,-11.5 2.59,-3.76 7.73,-4.7 11.48,-2.11l-9.37 13.61zm-3.57 47.17l0 -53.97 16.51 0 0 53.97 -3.57 6.8 -12.94 -6.8zm16.51 0c0,4.57 -3.69,8.27 -8.25,8.27 -4.56,0 -8.25,-3.7 -8.25,-8.27l16.51 0z"/>
  </g>
 </g>
</svg>
