<?xml version="1.0" encoding="UTF-8"?>
<!DOCTYPE svg PUBLIC "-//W3C//DTD SVG 1.0//EN" "http://www.w3.org/TR/2001/REC-SVG-20010904/DTD/svg10.dtd">
<!-- Creator: CorelDRAW 2021 (64 Bit) -->
<svg xmlns="http://www.w3.org/2000/svg" xml:space="preserve" width="6.555mm" height="6.555mm" version="1.0" style="shape-rendering:geometricPrecision; text-rendering:geometricPrecision; image-rendering:optimizeQuality; fill-rule:evenodd; clip-rule:evenodd"
viewBox="0 0 159.13 159.13"
 xmlns:xlink="http://www.w3.org/1999/xlink"
 xmlns:xodm="http://www.corel.com/coreldraw/odm/2003">
 <defs>
  <style type="text/css">
   <![CDATA[
    .fil0 {fill:none}
    .fil1 {fill:white;fill-rule:nonzero}
   ]]>
  </style>
 </defs>
 <g id="Camada_x0020_1">
  <metadata id="CorelCorpID_0Corel-Layer"/>
  <rect class="fil0" width="159.13" height="159.13"/>
  <g>
   <path class="fil1" d="M47.45 45.35c-6.78,0 -12.28,-5.49 -12.28,-12.26 0,-6.77 5.5,-12.26 12.28,-12.26l0 24.52zm64.23 0l-64.23 0 0 -24.52 64.23 0 0 24.52zm0 -24.52c6.78,0 12.28,5.49 12.28,12.26 0,6.77 -5.5,12.26 -12.28,12.26l0 -24.52z"/>
  </g>
  <g>
   <path class="fil1" d="M47.45 91.83c-6.78,0 -12.28,-5.49 -12.28,-12.26 0,-6.77 5.5,-12.26 12.28,-12.26l0 24.52zm64.23 0l-64.23 0 0 -24.52 64.23 0 0 24.52zm0 -24.52c6.78,0 12.28,5.49 12.28,12.26 0,6.77 -5.5,12.26 -12.28,12.26l0 -24.52z"/>
  </g>
  <g>
   <path class="fil1" d="M47.45 138.31c-6.78,0 -12.28,-5.49 -12.28,-12.26 0,-6.77 5.5,-12.26 12.28,-12.26l0 24.52zm32.12 0l-32.12 0 0 -24.52 32.12 0 0 24.52zm0 -24.52c6.78,0 12.28,5.49 12.28,12.26 0,6.77 -5.5,12.26 -12.28,12.26l0 -24.52z"/>
  </g>
 </g>
</svg>
