<?xml version="1.0" encoding="UTF-8"?>
<!DOCTYPE svg PUBLIC "-//W3C//DTD SVG 1.0//EN" "http://www.w3.org/TR/2001/REC-SVG-20010904/DTD/svg10.dtd">
<!-- Creator: CorelDRAW 2021 (64 Bit) -->
<svg xmlns="http://www.w3.org/2000/svg" xml:space="preserve" width="6.555mm" height="6.555mm" version="1.0" style="shape-rendering:geometricPrecision; text-rendering:geometricPrecision; image-rendering:optimizeQuality; fill-rule:evenodd; clip-rule:evenodd"
viewBox="0 0 333.91 333.91"
 xmlns:xlink="http://www.w3.org/1999/xlink"
 xmlns:xodm="http://www.corel.com/coreldraw/odm/2003">
 <defs>
  <style type="text/css">
   <![CDATA[
    .fil0 {fill:none}
    .fil1 {fill:white;fill-rule:nonzero}
   ]]>
  </style>
 </defs>
 <g id="Camada_x0020_1">
  <metadata id="CorelCorpID_0Corel-Layer"/>
  <rect class="fil0" width="333.91" height="333.91"/>
  <g id="_2115155233776">
   <g>
    <path class="fil1" d="M155.4 244.64c-10.07,10.06 -26.37,10.08 -36.42,0.03 -10.05,-10.05 -10.03,-26.35 0.04,-36.41l36.38 36.38zm118.98 -118.97l-118.98 118.97 -36.38 -36.38 118.98 -118.97 36.38 36.38zm-36.38 -36.38c10.07,-10.06 26.37,-10.08 36.42,-0.03 10.05,10.05 10.03,26.35 -0.04,36.41l-36.38 -36.38z"/>
   </g>
   <g>
    <path class="fil1" d="M155.4 208.26c10.06,10.06 10.08,26.37 0.03,36.41 -10.05,10.05 -26.35,10.03 -36.41,-0.03l36.38 -36.38zm-59.48 -59.49l59.48 59.49 -36.38 36.38 -59.48 -59.49 36.38 -36.38zm-36.38 36.38c-10.06,-10.06 -10.08,-26.37 -0.03,-36.41 10.05,-10.05 26.35,-10.03 36.41,0.03l-36.38 36.38z"/>
   </g>
  </g>
 </g>
</svg>
